<svg xmlns="http://www.w3.org/2000/svg" viewBox="0 0 80 130" width="80" height="130">
  <!-- body -->
  <ellipse cx="38" cy="96" rx="26" ry="30" fill="#8b5a2b"/>
  <!-- belly -->
  <ellipse cx="38" cy="102" rx="16" ry="20" fill="#c4845f"/>
  <!-- left outer ear -->
  <circle cx="18" cy="33" r="15" fill="#8b5a2b"/>
  <!-- right outer ear -->
  <circle cx="58" cy="33" r="15" fill="#8b5a2b"/>
  <!-- left inner ear -->
  <circle cx="18" cy="33" r="9" fill="#c4845f"/>
  <!-- right inner ear -->
  <circle cx="58" cy="33" r="9" fill="#c4845f"/>
  <!-- head -->
  <circle cx="38" cy="51" r="26" fill="#8b5a2b"/>
  <!-- muzzle -->
  <ellipse cx="38" cy="62" rx="15" ry="12" fill="#c4845f"/>
  <!-- left eye -->
  <circle cx="28" cy="44" r="5.5" fill="#1a0a00"/>
  <!-- right eye -->
  <circle cx="48" cy="44" r="5.5" fill="#1a0a00"/>
  <!-- eye shine left -->
  <circle cx="30" cy="42" r="2" fill="white"/>
  <!-- eye shine right -->
  <circle cx="50" cy="42" r="2" fill="white"/>
  <!-- nose -->
  <ellipse cx="38" cy="57" rx="5" ry="3.5" fill="#1a0a00"/>
  <!-- nose shine -->
  <circle cx="36" cy="55.5" r="1.5" fill="#555"/>
  <!-- mouth -->
  <path d="M33 61 Q38 66 43 61" stroke="#5a2a0a" stroke-width="1.8" fill="none" stroke-linecap="round"/>
  <!-- cheeks -->
  <circle cx="24" cy="60" r="7" fill="#c4845f" opacity="0.45"/>
  <circle cx="52" cy="60" r="7" fill="#c4845f" opacity="0.45"/>
  <!-- front left paw -->
  <ellipse cx="26" cy="120" rx="12" ry="8" fill="#8b5a2b"/>
  <!-- front right paw -->
  <ellipse cx="50" cy="120" rx="12" ry="8" fill="#8b5a2b"/>
  <!-- paw toes left -->
  <circle cx="20" cy="122" r="3" fill="#5a3010"/>
  <circle cx="26" cy="125" r="3" fill="#5a3010"/>
  <circle cx="32" cy="122" r="3" fill="#5a3010"/>
  <!-- paw toes right -->
  <circle cx="44" cy="122" r="3" fill="#5a3010"/>
  <circle cx="50" cy="125" r="3" fill="#5a3010"/>
  <circle cx="56" cy="122" r="3" fill="#5a3010"/>
</svg>
